<svg width="48" height="74" viewBox="0 0 48 74" fill="none" xmlns="http://www.w3.org/2000/svg">
<g clip-path="url(#clip0_3169_30276)">
<path d="M0 12C0 6.34315 0 3.51472 1.75736 1.75736C3.51472 0 6.34315 0 12 0H36C41.6569 0 44.4853 0 46.2426 1.75736C48 3.51472 48 6.34315 48 12V62C48 67.6569 48 70.4853 46.2426 72.2426C44.4853 74 41.6569 74 36 74H12C6.34315 74 3.51472 74 1.75736 72.2426C0 70.4853 0 67.6569 0 62V12Z" fill="#6671EE"/>
<g filter="url(#filter0_dddd_3169_30276)">
<circle cx="24" cy="69" r="28" fill="#8396F6"/>
</g>
<g filter="url(#filter1_dddd_3169_30276)">
<g filter="url(#filter2_i_3169_30276)">
<path d="M27.9955 20.6346C28.4557 20.8912 28.6816 21.4286 28.5429 21.9369L25.5002 33.0937H36.6041C37.0604 33.0937 37.4732 33.3644 37.655 33.7829C37.8369 34.2013 37.7531 34.6878 37.4418 35.0214L21.4002 52.2088C21.0406 52.594 20.4648 52.6844 20.0045 52.4278C19.5443 52.1712 19.3184 51.6338 19.457 51.1255L22.4998 39.9687H11.3959C10.9396 39.9687 10.5268 39.698 10.345 39.2795C10.1631 38.8611 10.2469 38.3746 10.5582 38.041L26.5998 20.8536C26.9593 20.4684 27.5352 20.378 27.9955 20.6346Z" fill="#E1E9FE"/>
</g>
</g>
</g>
<defs>
<filter id="filter0_dddd_3169_30276" x="-6.625" y="41" width="61.25" height="61.25" filterUnits="userSpaceOnUse" color-interpolation-filters="sRGB">
<feFlood flood-opacity="0" result="BackgroundImageFix"/>
<feColorMatrix in="SourceAlpha" type="matrix" values="0 0 0 0 0 0 0 0 0 0 0 0 0 0 0 0 0 0 127 0" result="hardAlpha"/>
<feMorphology radius="2.625" operator="erode" in="SourceAlpha" result="effect1_dropShadow_3169_30276"/>
<feOffset dy="2.625"/>
<feGaussianBlur stdDeviation="2.625"/>
<feComposite in2="hardAlpha" operator="out"/>
<feColorMatrix type="matrix" values="0 0 0 0 0 0 0 0 0 0 0 0 0 0 0 0 0 0 0.03 0"/>
<feBlend mode="normal" in2="BackgroundImageFix" result="effect1_dropShadow_3169_30276"/>
<feColorMatrix in="SourceAlpha" type="matrix" values="0 0 0 0 0 0 0 0 0 0 0 0 0 0 0 0 0 0 127 0" result="hardAlpha"/>
<feMorphology radius="1.75" operator="erode" in="SourceAlpha" result="effect2_dropShadow_3169_30276"/>
<feOffset dy="1.75"/>
<feGaussianBlur stdDeviation="1.75"/>
<feComposite in2="hardAlpha" operator="out"/>
<feColorMatrix type="matrix" values="0 0 0 0 0 0 0 0 0 0 0 0 0 0 0 0 0 0 0.03 0"/>
<feBlend mode="normal" in2="effect1_dropShadow_3169_30276" result="effect2_dropShadow_3169_30276"/>
<feColorMatrix in="SourceAlpha" type="matrix" values="0 0 0 0 0 0 0 0 0 0 0 0 0 0 0 0 0 0 127 0" result="hardAlpha"/>
<feMorphology radius="0.875" operator="erode" in="SourceAlpha" result="effect3_dropShadow_3169_30276"/>
<feOffset dy="0.875"/>
<feGaussianBlur stdDeviation="0.875"/>
<feComposite in2="hardAlpha" operator="out"/>
<feColorMatrix type="matrix" values="0 0 0 0 0 0 0 0 0 0 0 0 0 0 0 0 0 0 0.03 0"/>
<feBlend mode="normal" in2="effect2_dropShadow_3169_30276" result="effect3_dropShadow_3169_30276"/>
<feColorMatrix in="SourceAlpha" type="matrix" values="0 0 0 0 0 0 0 0 0 0 0 0 0 0 0 0 0 0 127 0" result="hardAlpha"/>
<feMorphology radius="0.875" operator="erode" in="SourceAlpha" result="effect4_dropShadow_3169_30276"/>
<feOffset/>
<feGaussianBlur stdDeviation="0.4375"/>
<feComposite in2="hardAlpha" operator="out"/>
<feColorMatrix type="matrix" values="0 0 0 0 0 0 0 0 0 0 0 0 0 0 0 0 0 0 0.03 0"/>
<feBlend mode="normal" in2="effect3_dropShadow_3169_30276" result="effect4_dropShadow_3169_30276"/>
<feBlend mode="normal" in="SourceGraphic" in2="effect4_dropShadow_3169_30276" result="shape"/>
</filter>
<filter id="filter1_dddd_3169_30276" x="-5" y="10.5312" width="58" height="58" filterUnits="userSpaceOnUse" color-interpolation-filters="sRGB">
<feFlood flood-opacity="0" result="BackgroundImageFix"/>
<feColorMatrix in="SourceAlpha" type="matrix" values="0 0 0 0 0 0 0 0 0 0 0 0 0 0 0 0 0 0 127 0" result="hardAlpha"/>
<feMorphology radius="3" operator="dilate" in="SourceAlpha" result="effect1_dropShadow_3169_30276"/>
<feOffset dy="3"/>
<feGaussianBlur stdDeviation="3"/>
<feComposite in2="hardAlpha" operator="out"/>
<feColorMatrix type="matrix" values="0 0 0 0 0 0 0 0 0 0 0 0 0 0 0 0 0 0 0.05 0"/>
<feBlend mode="normal" in2="BackgroundImageFix" result="effect1_dropShadow_3169_30276"/>
<feColorMatrix in="SourceAlpha" type="matrix" values="0 0 0 0 0 0 0 0 0 0 0 0 0 0 0 0 0 0 127 0" result="hardAlpha"/>
<feMorphology radius="2" operator="dilate" in="SourceAlpha" result="effect2_dropShadow_3169_30276"/>
<feOffset dy="2"/>
<feGaussianBlur stdDeviation="2"/>
<feComposite in2="hardAlpha" operator="out"/>
<feColorMatrix type="matrix" values="0 0 0 0 0 0 0 0 0 0 0 0 0 0 0 0 0 0 0.05 0"/>
<feBlend mode="normal" in2="effect1_dropShadow_3169_30276" result="effect2_dropShadow_3169_30276"/>
<feColorMatrix in="SourceAlpha" type="matrix" values="0 0 0 0 0 0 0 0 0 0 0 0 0 0 0 0 0 0 127 0" result="hardAlpha"/>
<feMorphology radius="1" operator="dilate" in="SourceAlpha" result="effect3_dropShadow_3169_30276"/>
<feOffset dy="1"/>
<feGaussianBlur stdDeviation="1"/>
<feComposite in2="hardAlpha" operator="out"/>
<feColorMatrix type="matrix" values="0 0 0 0 0 0 0 0 0 0 0 0 0 0 0 0 0 0 0.05 0"/>
<feBlend mode="normal" in2="effect2_dropShadow_3169_30276" result="effect3_dropShadow_3169_30276"/>
<feColorMatrix in="SourceAlpha" type="matrix" values="0 0 0 0 0 0 0 0 0 0 0 0 0 0 0 0 0 0 127 0" result="hardAlpha"/>
<feMorphology radius="1" operator="dilate" in="SourceAlpha" result="effect4_dropShadow_3169_30276"/>
<feOffset/>
<feGaussianBlur stdDeviation="0.5"/>
<feComposite in2="hardAlpha" operator="out"/>
<feColorMatrix type="matrix" values="0 0 0 0 0 0 0 0 0 0 0 0 0 0 0 0 0 0 0.05 0"/>
<feBlend mode="normal" in2="effect3_dropShadow_3169_30276" result="effect4_dropShadow_3169_30276"/>
<feBlend mode="normal" in="SourceGraphic" in2="effect4_dropShadow_3169_30276" result="shape"/>
</filter>
<filter id="filter2_i_3169_30276" x="10.25" y="16.4896" width="27.5" height="36.0833" filterUnits="userSpaceOnUse" color-interpolation-filters="sRGB">
<feFlood flood-opacity="0" result="BackgroundImageFix"/>
<feBlend mode="normal" in="SourceGraphic" in2="BackgroundImageFix" result="shape"/>
<feColorMatrix in="SourceAlpha" type="matrix" values="0 0 0 0 0 0 0 0 0 0 0 0 0 0 0 0 0 0 127 0" result="hardAlpha"/>
<feOffset dy="-4"/>
<feGaussianBlur stdDeviation="4"/>
<feComposite in2="hardAlpha" operator="arithmetic" k2="-1" k3="1"/>
<feColorMatrix type="matrix" values="0 0 0 0 0 0 0 0 0 0 0 0 0 0 0 0 0 0 0.05 0"/>
<feBlend mode="normal" in2="shape" result="effect1_innerShadow_3169_30276"/>
</filter>
<clipPath id="clip0_3169_30276">
<path d="M0 12C0 6.34315 0 3.51472 1.75736 1.75736C3.51472 0 6.34315 0 12 0H36C41.6569 0 44.4853 0 46.2426 1.75736C48 3.51472 48 6.34315 48 12V62C48 67.6569 48 70.4853 46.2426 72.2426C44.4853 74 41.6569 74 36 74H12C6.34315 74 3.51472 74 1.75736 72.2426C0 70.4853 0 67.6569 0 62V12Z" fill="white"/>
</clipPath>
</defs>
</svg>
